<svg xmlns="http://www.w3.org/2000/svg" xmlns:xlink="http://www.w3.org/1999/xlink" width="2000" zoomAndPan="magnify" viewBox="0 0 1500 1499.999933" height="2000" preserveAspectRatio="xMidYMid meet" version="1.0"><defs><g/><clipPath id="a2474050c9"><path d="M 750 0 C 335.785156 0 0 335.785156 0 750 C 0 1164.214844 335.785156 1500 750 1500 C 1164.214844 1500 1500 1164.214844 1500 750 C 1500 335.785156 1164.214844 0 750 0 Z M 750 0 " clip-rule="nonzero"/></clipPath><clipPath id="f295842dc4"><path d="M 0 0 L 1500 0 L 1500 1500 L 0 1500 Z M 0 0 " clip-rule="nonzero"/></clipPath><clipPath id="80feafed32"><path d="M 750 0 C 335.785156 0 0 335.785156 0 750 C 0 1164.214844 335.785156 1500 750 1500 C 1164.214844 1500 1500 1164.214844 1500 750 C 1500 335.785156 1164.214844 0 750 0 Z M 750 0 " clip-rule="nonzero"/></clipPath><clipPath id="1f30622ef2"><rect x="0" width="1500" y="0" height="1500"/></clipPath><clipPath id="1e76aa5f5a"><rect x="0" width="1286" y="0" height="1244"/></clipPath></defs><g clip-path="url(#a2474050c9)"><g transform="matrix(1, 0, 0, 1, 0, 0.000000000000112861)"><g clip-path="url(#1f30622ef2)"><g clip-path="url(#f295842dc4)"><g clip-path="url(#80feafed32)"><rect x="-330" width="2160" fill="#ff914d" height="2159.999904" y="-329.999985" fill-opacity="1"/></g></g></g></g></g><g transform="matrix(1, 0, 0, 1, 144, 0.000000000000112861)"><g clip-path="url(#1e76aa5f5a)"><g fill="#000000" fill-opacity="1"><g transform="translate(65.183687, 1063.67493)"><g><path d="M 1138.390625 -430.421875 C 1158.085938 -430.421875 1175.644531 -424.851562 1191.0625 -413.71875 C 1206.476562 -402.582031 1214.1875 -386.738281 1214.1875 -366.1875 C 1214.1875 -361.90625 1213.757812 -357.40625 1212.90625 -352.6875 C 1212.050781 -347.976562 1210.765625 -343.484375 1209.046875 -339.203125 C 1179.929688 -253.546875 1145.457031 -186.085938 1105.625 -136.828125 C 1065.789062 -87.578125 1024.242188 -52.457031 980.984375 -31.46875 C 937.734375 -10.488281 894.691406 0 851.859375 0 C 814.171875 0 779.476562 -7.066406 747.78125 -21.203125 C 716.09375 -35.335938 690.613281 -56.109375 671.34375 -83.515625 C 652.070312 -110.921875 642.4375 -143.898438 642.4375 -182.453125 C 642.4375 -210.710938 647.570312 -239.40625 657.84375 -268.53125 L 755.5 -534.5 C 758.925781 -544.78125 760.640625 -554.203125 760.640625 -562.765625 C 760.640625 -574.753906 756.785156 -584.390625 749.078125 -591.671875 C 741.367188 -598.953125 731.515625 -602.59375 719.515625 -602.59375 C 698.109375 -602.59375 676.695312 -593.382812 655.28125 -574.96875 C 633.863281 -556.550781 617.160156 -531.070312 605.171875 -498.53125 L 457.40625 -80.953125 C 447.988281 -53.535156 433 -33.1875 412.4375 -19.90625 C 391.882812 -6.632812 370.898438 0 349.484375 0 C 328.066406 0 309.003906 -6.632812 292.296875 -19.90625 C 275.597656 -33.1875 267.25 -51.820312 267.25 -75.8125 C 267.25 -89.507812 270.675781 -105.351562 277.53125 -123.34375 L 427.859375 -540.921875 C 431.285156 -548.628906 433 -556.769531 433 -565.34375 C 433 -577.332031 428.925781 -586.535156 420.78125 -592.953125 C 412.644531 -599.378906 402.15625 -602.59375 389.3125 -602.59375 C 370.46875 -602.59375 351.410156 -595.097656 332.140625 -580.109375 C 312.867188 -565.117188 296.378906 -543.921875 282.671875 -516.515625 L 129.765625 -77.09375 C 121.203125 -51.394531 107.066406 -32.117188 87.359375 -19.265625 C 67.660156 -6.421875 46.675781 0 24.40625 0 C 2.132812 0 -17.773438 -6.421875 -35.328125 -19.265625 C -52.890625 -32.117188 -61.671875 -50.535156 -61.671875 -74.515625 C -61.671875 -84.796875 -59.957031 -95.078125 -56.53125 -105.359375 L 149.046875 -697.671875 C 156.753906 -716.523438 169.816406 -730.660156 188.234375 -740.078125 C 206.648438 -749.503906 225.707031 -754.21875 245.40625 -754.21875 C 259.96875 -754.21875 273.671875 -751.644531 286.515625 -746.5 C 299.367188 -741.363281 309.222656 -734.082031 316.078125 -724.65625 C 328.066406 -731.507812 342.195312 -738.148438 358.46875 -744.578125 C 374.75 -751.003906 396.164062 -754.21875 422.71875 -754.21875 C 460.40625 -754.21875 490.382812 -748.21875 512.65625 -736.21875 C 534.925781 -724.226562 552.914062 -710.523438 566.625 -695.109375 C 596.601562 -719.085938 627.007812 -734.929688 657.84375 -742.640625 C 688.6875 -750.359375 715.671875 -754.21875 738.796875 -754.21875 C 778.191406 -754.21875 813.953125 -746.9375 846.078125 -732.375 C 878.203125 -717.8125 903.898438 -697.46875 923.171875 -671.34375 C 942.441406 -645.21875 952.078125 -613.738281 952.078125 -576.90625 C 952.078125 -565.769531 951.003906 -553.988281 948.859375 -541.5625 C 946.722656 -529.144531 943.515625 -516.941406 939.234375 -504.953125 L 830.015625 -205.578125 C 829.160156 -203.003906 828.519531 -200.21875 828.09375 -197.21875 C 827.664062 -194.226562 827.453125 -191.019531 827.453125 -187.59375 C 827.453125 -178.164062 830.660156 -170.023438 837.078125 -163.171875 C 843.503906 -156.316406 853.144531 -152.890625 866 -152.890625 C 895.976562 -152.890625 927.671875 -169.804688 961.078125 -203.640625 C 994.484375 -237.484375 1025.316406 -292.953125 1053.578125 -370.046875 C 1060.429688 -390.597656 1071.992188 -405.796875 1088.265625 -415.640625 C 1104.546875 -425.492188 1121.253906 -430.421875 1138.390625 -430.421875 Z M 1138.390625 -430.421875 "/></g></g></g></g></g></svg>