<svg xmlns="http://www.w3.org/2000/svg" xmlns:xlink="http://www.w3.org/1999/xlink" width="2000" zoomAndPan="magnify" viewBox="0 0 1500 1499.999933" height="2000" preserveAspectRatio="xMidYMid meet" version="1.0"><defs><g/><clipPath id="fe39225747"><rect x="0" width="1372" y="0" height="1314"/></clipPath></defs><rect x="-150" width="1800" fill="#ffffff" y="-149.999993" height="1799.99992" fill-opacity="1"/><rect x="-150" width="1800" fill="#ff914d" y="-149.999993" height="1799.99992" fill-opacity="1"/><g transform="matrix(1, 0, 0, 1, 81, 0.000000000000112861)"><g clip-path="url(#fe39225747)"><g fill="#000000" fill-opacity="1"><g transform="translate(69.00002, 1120.967024)"><g><path d="M 1214.28125 -459.125 C 1235.289062 -459.125 1254.019531 -453.179688 1270.46875 -441.296875 C 1286.914062 -429.421875 1295.140625 -412.519531 1295.140625 -390.59375 C 1295.140625 -386.03125 1294.679688 -381.234375 1293.765625 -376.203125 C 1292.847656 -371.179688 1291.476562 -366.382812 1289.65625 -361.8125 C 1258.59375 -270.445312 1221.816406 -198.492188 1179.328125 -145.953125 C 1136.835938 -93.421875 1092.519531 -55.960938 1046.375 -33.578125 C 1000.238281 -11.191406 954.332031 0 908.65625 0 C 868.445312 0 831.441406 -7.535156 797.640625 -22.609375 C 763.835938 -37.691406 736.65625 -59.847656 716.09375 -89.078125 C 695.53125 -118.316406 685.25 -153.492188 685.25 -194.609375 C 685.25 -224.765625 690.734375 -255.375 701.703125 -286.4375 L 805.859375 -570.140625 C 809.515625 -581.097656 811.34375 -591.144531 811.34375 -600.28125 C 811.34375 -613.070312 807.226562 -623.347656 799 -631.109375 C 790.78125 -638.878906 780.273438 -642.765625 767.484375 -642.765625 C 744.640625 -642.765625 721.796875 -632.941406 698.953125 -613.296875 C 676.117188 -593.660156 658.304688 -566.484375 645.515625 -531.765625 L 487.90625 -86.34375 C 477.851562 -57.101562 461.863281 -35.398438 439.9375 -21.234375 C 418.007812 -7.078125 395.625 0 372.78125 0 C 349.9375 0 329.601562 -7.078125 311.78125 -21.234375 C 293.96875 -35.398438 285.0625 -55.273438 285.0625 -80.859375 C 285.0625 -95.472656 288.71875 -112.375 296.03125 -131.5625 L 456.375 -576.984375 C 460.03125 -585.210938 461.859375 -593.894531 461.859375 -603.03125 C 461.859375 -615.820312 457.519531 -625.640625 448.84375 -632.484375 C 440.164062 -639.335938 428.972656 -642.765625 415.265625 -642.765625 C 395.160156 -642.765625 374.828125 -634.769531 354.265625 -618.78125 C 333.710938 -602.789062 316.128906 -580.179688 301.515625 -550.953125 L 138.421875 -82.234375 C 129.285156 -54.816406 114.207031 -34.253906 93.1875 -20.546875 C 72.175781 -6.847656 49.796875 0 26.046875 0 C 2.285156 0 -18.957031 -6.847656 -37.6875 -20.546875 C -56.414062 -34.253906 -65.78125 -53.898438 -65.78125 -79.484375 C -65.78125 -90.453125 -63.953125 -101.414062 -60.296875 -112.375 L 158.984375 -744.1875 C 167.203125 -764.289062 181.132812 -779.367188 200.78125 -789.421875 C 220.425781 -799.472656 240.753906 -804.5 261.765625 -804.5 C 277.296875 -804.5 291.914062 -801.753906 305.625 -796.265625 C 319.332031 -790.785156 329.835938 -783.019531 337.140625 -772.96875 C 349.929688 -780.28125 365.003906 -787.363281 382.359375 -794.21875 C 399.722656 -801.070312 422.570312 -804.5 450.90625 -804.5 C 491.101562 -804.5 523.078125 -798.101562 546.828125 -785.3125 C 570.585938 -772.519531 589.773438 -757.898438 604.390625 -741.453125 C 636.367188 -767.035156 668.804688 -783.9375 701.703125 -792.15625 C 734.597656 -800.382812 763.378906 -804.5 788.046875 -804.5 C 830.078125 -804.5 868.222656 -796.726562 902.484375 -781.1875 C 936.742188 -765.65625 964.148438 -743.957031 984.703125 -716.09375 C 1005.265625 -688.226562 1015.546875 -654.648438 1015.546875 -615.359375 C 1015.546875 -603.484375 1014.40625 -590.921875 1012.125 -577.671875 C 1009.84375 -564.421875 1006.414062 -551.398438 1001.84375 -538.609375 L 885.359375 -219.28125 C 884.441406 -216.539062 883.753906 -213.570312 883.296875 -210.375 C 882.835938 -207.175781 882.609375 -203.75 882.609375 -200.09375 C 882.609375 -190.039062 886.035156 -181.359375 892.890625 -174.046875 C 899.742188 -166.742188 910.023438 -163.09375 923.734375 -163.09375 C 955.710938 -163.09375 989.515625 -181.132812 1025.140625 -217.21875 C 1060.773438 -253.3125 1093.671875 -312.472656 1123.828125 -394.703125 C 1131.128906 -416.628906 1143.457031 -432.847656 1160.8125 -443.359375 C 1178.175781 -453.867188 1196 -459.125 1214.28125 -459.125 Z M 1214.28125 -459.125 "/></g></g></g></g></g></svg>